<svg xmlns="http://www.w3.org/2000/svg" version="1.1" xmlns:xlink="http://www.w3.org/1999/xlink" xmlns:svgjs="http://svgjs.com/svgjs" width="1440" height="560" preserveAspectRatio="none" viewBox="0 0 1440 560">
    <g mask="url(&quot;#SvgjsMask1014&quot;)" fill="none">
        <rect width="1440" height="560" x="0" y="0" fill="rgba(33, 150, 243, 1)"></rect>
        <path d="M0,543.884C100.337,524.436,130.877,392.477,214.139,333.206C291.403,278.205,423.883,297.811,465.438,212.558C506.798,127.704,425.516,33.906,404.932,-58.22C386.294,-141.639,392.107,-228.938,350.155,-303.411C302.025,-388.851,246.751,-494.905,149.984,-510.799C51.754,-526.933,-15.793,-407.119,-111.347,-379.212C-207.124,-351.24,-337.773,-424.707,-403.085,-349.275C-468.405,-273.835,-395.297,-155.916,-391.01,-56.219C-387.644,22.051,-398.831,97.621,-380.591,173.81C-358.788,264.883,-342.218,362.747,-275.079,428.031C-202.273,498.825,-99.695,563.208,0,543.884" fill="#0d87e9"></path>
        <path d="M1440 1025.222C1528.092 1025.9 1609.909 987.304 1684.853 940.999 1760.865 894.034 1839.695 840.654 1872.9479999999999 757.721 1905.694 676.052 1872.567 586.679 1861.944 499.334 1851.058 409.826 1875.5 301.346 1809.9180000000001 239.46499999999997 1743.785 177.065 1634.68 218.41000000000003 1545.489 200.738 1466.812 185.14999999999998 1396.48 129.57299999999998 1317.218 141.844 1233.807 154.75799999999998 1148.983 197.48899999999998 1104.23 269.053 1060.784 338.527 1104.24 429.11199999999997 1087.42 509.307 1068.878 597.712 978.662 672.927 1001.1759999999999 760.404 1023.586 847.477 1120.579 890.7909999999999 1197.559 937.246 1272.686 982.5830000000001 1352.256 1024.546 1440 1025.222" fill="#3ea4f5"></path>
    </g>
    <defs>
        <mask id="SvgjsMask1014">
            <rect width="1440" height="560" fill="#ffffff"></rect>
        </mask>
    </defs>
</svg>